<svg xmlns="http://www.w3.org/2000/svg" viewBox="0 0 1420 1240" width="1420" height="1240" role="img" aria-label="SAP SD 知识地图（思维导图）" font-family="'PingFang SC','Hiragino Sans GB','Noto Sans CJK SC','Microsoft YaHei',sans-serif">
<title>SAP SD 知识地图（思维导图）</title>
<defs><marker id="ar" viewBox="0 0 10 10" refX="9" refY="5" markerWidth="7" markerHeight="7" orient="auto-start-reverse"><path d="M0,0 L10,5 L0,10 z" fill="#0a6ed1"/></marker><marker id="ar2" viewBox="0 0 10 10" refX="9" refY="5" markerWidth="7" markerHeight="7" orient="auto-start-reverse"><path d="M0,0 L10,5 L0,10 z" fill="#007272"/></marker><marker id="arw" viewBox="0 0 10 10" refX="9" refY="5" markerWidth="7" markerHeight="7" orient="auto-start-reverse"><path d="M0,0 L10,5 L0,10 z" fill="#ffffff"/></marker></defs>
<rect width="1420" height="1240" fill="#ffffff"/>
<text x="40.0" y="46.0" font-size="22" fill="#1d2d3e" text-anchor="start" font-weight="700">SAP SD 知识地图 — 从总体到局部</text>
<text x="40.0" y="70.0" font-size="12.5" fill="#6b7a8d" text-anchor="start" font-weight="400">六大板块：① 概念 ② 组织 ③ 主数据 ④ 定价 ⑤ 流程 ⑥ 配置与分析。叶节点 = 课程要点（本站自绘 SVG）</text>
<rect x="590.0" y="585.0" width="240.0" height="150.0" rx="16" fill="#0854a0" stroke="#0854a0" stroke-width="1.4"/>
<text x="710.0" y="638.0" font-size="32" fill="#ffffff" text-anchor="middle" font-weight="700">SAP SD</text>
<text x="710.0" y="670.0" font-size="18" fill="#dbeafd" text-anchor="middle" font-weight="400">销售与分销</text>
<text x="710.0" y="696.0" font-size="12" fill="#a9cdf3" text-anchor="middle" font-weight="400" font-family="'SF Mono',Menlo,Consolas,monospace">Sales &amp; Distribution</text>
<text x="710.0" y="720.0" font-size="11.5" fill="#a9cdf3" text-anchor="middle" font-weight="400">看地图 → 走流程 → 配系统</text>
<rect x="320.0" y="108.0" width="200.0" height="42.0" rx="12" fill="#0a6ed1" stroke="#0a6ed1" stroke-width="1.4"/>
<text x="420.0" y="136.0" font-size="16" fill="#ffffff" text-anchor="middle" font-weight="700">① 概念与定位</text>
<path d="M 590 612 C 544 612 566 129 520 129" fill="none" stroke="#0a6ed1" stroke-width="2.6"/>
<rect x="40.0" y="162.0" width="480.0" height="46.0" rx="8" fill="#ffffff" stroke="#0a6ed1" stroke-width="1.2"/>
<text x="52.0" y="191.0" font-size="12.5" fill="#354a5f" text-anchor="start" font-weight="400">SD 管什么：卖什么 · 卖给谁 · 怎么定价 · 怎么发货 · 怎么开票</text>
<line x1="520.0" y1="185.0" x2="420.0" y2="150.0" stroke="#0a6ed1" stroke-width="1.2"/>
<rect x="40.0" y="217.0" width="480.0" height="46.0" rx="8" fill="#ffffff" stroke="#0a6ed1" stroke-width="1.2"/>
<text x="52.0" y="246.0" font-size="12.5" fill="#354a5f" text-anchor="start" font-weight="400">与 FI / MM / PP / CO 的分界：SD 出「销售凭证」，邻居模块出库存与会计凭证</text>
<line x1="520.0" y1="240.0" x2="420.0" y2="150.0" stroke="#0a6ed1" stroke-width="1.2"/>
<rect x="40.0" y="272.0" width="480.0" height="46.0" rx="8" fill="#ffffff" stroke="#0a6ed1" stroke-width="1.2"/>
<text x="52.0" y="301.0" font-size="12.5" fill="#354a5f" text-anchor="start" font-weight="400">三大概念层：组织结构 → 主数据 → 单据（配置顺序也是这个顺序）</text>
<line x1="520.0" y1="295.0" x2="420.0" y2="150.0" stroke="#0a6ed1" stroke-width="1.2"/>
<rect x="40.0" y="327.0" width="480.0" height="46.0" rx="8" fill="#ffffff" stroke="#0a6ed1" stroke-width="1.2"/>
<text x="52.0" y="356.0" font-size="12.5" fill="#354a5f" text-anchor="start" font-weight="400">五大单据：询价 · 报价 · 销售订单 · 交货 · 发票</text>
<line x1="520.0" y1="350.0" x2="420.0" y2="150.0" stroke="#0a6ed1" stroke-width="1.2"/>
<rect x="40.0" y="382.0" width="480.0" height="46.0" rx="8" fill="#ffffff" stroke="#0a6ed1" stroke-width="1.2"/>
<text x="52.0" y="411.0" font-size="12.5" fill="#354a5f" text-anchor="start" font-weight="400">核心组织键：销售范围 = 销售组织 + 分销渠道 + 产品组</text>
<line x1="520.0" y1="405.0" x2="420.0" y2="150.0" stroke="#0a6ed1" stroke-width="1.2"/>
<rect x="320.0" y="472.0" width="200.0" height="42.0" rx="12" fill="#007272" stroke="#007272" stroke-width="1.4"/>
<text x="420.0" y="500.0" font-size="16" fill="#ffffff" text-anchor="middle" font-weight="700">② 组织结构</text>
<path d="M 590 636 C 544 636 566 493 520 493" fill="none" stroke="#007272" stroke-width="2.6"/>
<rect x="40.0" y="526.0" width="480.0" height="46.0" rx="8" fill="#ffffff" stroke="#007272" stroke-width="1.2"/>
<text x="52.0" y="555.0" font-size="12.5" fill="#354a5f" text-anchor="start" font-weight="400">企业结构：公司代码 / 销售组织 / 工厂</text>
<line x1="520.0" y1="549.0" x2="420.0" y2="514.0" stroke="#007272" stroke-width="1.2"/>
<rect x="40.0" y="581.0" width="480.0" height="46.0" rx="8" fill="#ffffff" stroke="#007272" stroke-width="1.2"/>
<text x="52.0" y="610.0" font-size="12.5" fill="#354a5f" text-anchor="start" font-weight="400">销售结构：分销渠道 / 产品组 / 销售办公室 / 销售组</text>
<line x1="520.0" y1="604.0" x2="420.0" y2="514.0" stroke="#007272" stroke-width="1.2"/>
<rect x="40.0" y="636.0" width="480.0" height="46.0" rx="8" fill="#ffffff" stroke="#007272" stroke-width="1.2"/>
<text x="52.0" y="665.0" font-size="12.5" fill="#354a5f" text-anchor="start" font-weight="400">装运结构：起运点 / 装载点 / 拣配库存地点 / 运送条件</text>
<line x1="520.0" y1="659.0" x2="420.0" y2="514.0" stroke="#007272" stroke-width="1.2"/>
<rect x="40.0" y="691.0" width="480.0" height="46.0" rx="8" fill="#ffffff" stroke="#007272" stroke-width="1.2"/>
<text x="52.0" y="720.0" font-size="12.5" fill="#354a5f" text-anchor="start" font-weight="400">分配关系多为多对多（一工厂可对多销售组织，一起运点可服务多工厂）</text>
<line x1="520.0" y1="714.0" x2="420.0" y2="514.0" stroke="#007272" stroke-width="1.2"/>
<rect x="40.0" y="746.0" width="480.0" height="46.0" rx="8" fill="#ffffff" stroke="#007272" stroke-width="1.2"/>
<text x="52.0" y="775.0" font-size="12.5" fill="#354a5f" text-anchor="start" font-weight="400">组织数据决定：主数据怎么建、单据怎么跑、库存从哪发、收入怎么记账</text>
<line x1="520.0" y1="769.0" x2="420.0" y2="514.0" stroke="#007272" stroke-width="1.2"/>
<rect x="320.0" y="836.0" width="200.0" height="42.0" rx="12" fill="#177245" stroke="#177245" stroke-width="1.4"/>
<text x="420.0" y="864.0" font-size="16" fill="#ffffff" text-anchor="middle" font-weight="700">③ 主数据</text>
<path d="M 590 660 C 544 660 566 857 520 857" fill="none" stroke="#177245" stroke-width="2.6"/>
<rect x="40.0" y="890.0" width="480.0" height="46.0" rx="8" fill="#ffffff" stroke="#177245" stroke-width="1.2"/>
<text x="52.0" y="919.0" font-size="12.5" fill="#354a5f" text-anchor="start" font-weight="400">客户主数据三层：一般数据 / 公司代码数据 / 销售范围数据</text>
<line x1="520.0" y1="913.0" x2="420.0" y2="878.0" stroke="#177245" stroke-width="1.2"/>
<rect x="40.0" y="945.0" width="480.0" height="46.0" rx="8" fill="#ffffff" stroke="#177245" stroke-width="1.2"/>
<text x="52.0" y="965.0" font-size="12.5" fill="#354a5f" text-anchor="start" font-weight="400">四个伙伴角色：售达方 · 送达方 · 收票方 ·</text>
<text x="52.0" y="981.0" font-size="12.5" fill="#354a5f" text-anchor="start" font-weight="400">付款方（可指向同一客户的不同编号）</text>
<line x1="520.0" y1="968.0" x2="420.0" y2="878.0" stroke="#177245" stroke-width="1.2"/>
<rect x="40.0" y="1000.0" width="480.0" height="46.0" rx="8" fill="#ffffff" stroke="#177245" stroke-width="1.2"/>
<text x="52.0" y="1029.0" font-size="12.5" fill="#354a5f" text-anchor="start" font-weight="400">物料主数据：销售视图（销售范围级）+ 工厂级视图（MRP 等）</text>
<line x1="520.0" y1="1023.0" x2="420.0" y2="878.0" stroke="#177245" stroke-width="1.2"/>
<rect x="40.0" y="1055.0" width="480.0" height="46.0" rx="8" fill="#ffffff" stroke="#177245" stroke-width="1.2"/>
<text x="52.0" y="1084.0" font-size="12.5" fill="#354a5f" text-anchor="start" font-weight="400">条件记录：销售价格 PR00 / 折扣 / 销项税 MWST 等（VK11 维护）</text>
<line x1="520.0" y1="1078.0" x2="420.0" y2="878.0" stroke="#177245" stroke-width="1.2"/>
<rect x="40.0" y="1110.0" width="480.0" height="46.0" rx="8" fill="#ffffff" stroke="#177245" stroke-width="1.2"/>
<text x="52.0" y="1139.0" font-size="12.5" fill="#354a5f" text-anchor="start" font-weight="400">客户-物料信息记录 · 物料确定（清单与排斥）· 客户账户组</text>
<line x1="520.0" y1="1133.0" x2="420.0" y2="878.0" stroke="#177245" stroke-width="1.2"/>
<rect x="900.0" y="108.0" width="200.0" height="42.0" rx="12" fill="#8d6e00" stroke="#8d6e00" stroke-width="1.4"/>
<text x="1000.0" y="136.0" font-size="16" fill="#ffffff" text-anchor="middle" font-weight="700">④ 定价与条件技术</text>
<path d="M 830 612 C 876 612 854 129 900 129" fill="none" stroke="#8d6e00" stroke-width="2.6"/>
<rect x="900.0" y="162.0" width="480.0" height="46.0" rx="8" fill="#ffffff" stroke="#8d6e00" stroke-width="1.2"/>
<text x="912.0" y="191.0" font-size="12.5" fill="#354a5f" text-anchor="start" font-weight="400">四层结构：条件表 → 存取顺序 → 条件类型 → 定价过程</text>
<line x1="900.0" y1="185.0" x2="1000.0" y2="150.0" stroke="#8d6e00" stroke-width="1.2"/>
<rect x="900.0" y="217.0" width="480.0" height="46.0" rx="8" fill="#ffffff" stroke="#8d6e00" stroke-width="1.2"/>
<text x="912.0" y="237.0" font-size="12.5" fill="#354a5f" text-anchor="start" font-weight="400">条件类型 PR00（价格）/ MWST（销项税）/ 折扣与附加费（教材用 RVAA01</text>
<text x="912.0" y="253.0" font-size="12.5" fill="#354a5f" text-anchor="start" font-weight="400">标准过程）</text>
<line x1="900.0" y1="240.0" x2="1000.0" y2="150.0" stroke="#8d6e00" stroke-width="1.2"/>
<rect x="900.0" y="272.0" width="480.0" height="46.0" rx="8" fill="#ffffff" stroke="#8d6e00" stroke-width="1.2"/>
<text x="912.0" y="301.0" font-size="12.5" fill="#354a5f" text-anchor="start" font-weight="400">存取顺序决定「先找专用价，找不到再找一般价」的查找优先级</text>
<line x1="900.0" y1="295.0" x2="1000.0" y2="150.0" stroke="#8d6e00" stroke-width="1.2"/>
<rect x="900.0" y="327.0" width="480.0" height="46.0" rx="8" fill="#ffffff" stroke="#8d6e00" stroke-width="1.2"/>
<text x="912.0" y="356.0" font-size="12.5" fill="#354a5f" text-anchor="start" font-weight="400">定价过程确定三键：销售范围 + 客户定价过程 + 单据定价过程</text>
<line x1="900.0" y1="350.0" x2="1000.0" y2="150.0" stroke="#8d6e00" stroke-width="1.2"/>
<rect x="900.0" y="382.0" width="480.0" height="46.0" rx="8" fill="#ffffff" stroke="#8d6e00" stroke-width="1.2"/>
<text x="912.0" y="411.0" font-size="12.5" fill="#354a5f" text-anchor="start" font-weight="400">账户确定：账码 + 物料/客户账户分配组 → 收入科目（VKOA）</text>
<line x1="900.0" y1="405.0" x2="1000.0" y2="150.0" stroke="#8d6e00" stroke-width="1.2"/>
<rect x="900.0" y="472.0" width="200.0" height="42.0" rx="12" fill="#b3261e" stroke="#b3261e" stroke-width="1.4"/>
<text x="1000.0" y="500.0" font-size="16" fill="#ffffff" text-anchor="middle" font-weight="700">⑤ 业务流程 O2C</text>
<path d="M 830 636 C 876 636 854 493 900 493" fill="none" stroke="#b3261e" stroke-width="2.6"/>
<rect x="900.0" y="526.0" width="480.0" height="46.0" rx="8" fill="#ffffff" stroke="#b3261e" stroke-width="1.2"/>
<text x="912.0" y="555.0" font-size="12.5" fill="#354a5f" text-anchor="start" font-weight="400">售前：询价 VA11 → 报价 VA21（可参照创建）</text>
<line x1="900.0" y1="549.0" x2="1000.0" y2="514.0" stroke="#b3261e" stroke-width="1.2"/>
<rect x="900.0" y="581.0" width="480.0" height="46.0" rx="8" fill="#ffffff" stroke="#b3261e" stroke-width="1.2"/>
<text x="912.0" y="610.0" font-size="12.5" fill="#354a5f" text-anchor="start" font-weight="400">接单：销售订单 VA01 —— 定价 + 可用性检查 ATP → 确认交货日期</text>
<line x1="900.0" y1="604.0" x2="1000.0" y2="514.0" stroke="#b3261e" stroke-width="1.2"/>
<rect x="900.0" y="636.0" width="480.0" height="46.0" rx="8" fill="#ffffff" stroke="#b3261e" stroke-width="1.2"/>
<text x="912.0" y="665.0" font-size="12.5" fill="#354a5f" text-anchor="start" font-weight="400">交付：外向交货 VL01N → 拣配 → 发货过账 VL02N（移动类型 601 才真正出库）</text>
<line x1="900.0" y1="659.0" x2="1000.0" y2="514.0" stroke="#b3261e" stroke-width="1.2"/>
<rect x="900.0" y="691.0" width="480.0" height="46.0" rx="8" fill="#ffffff" stroke="#b3261e" stroke-width="1.2"/>
<text x="912.0" y="720.0" font-size="12.5" fill="#354a5f" text-anchor="start" font-weight="400">结算：发票 VF01 → 过账 VF02 → 会计凭证 → 收款 F-28 清账</text>
<line x1="900.0" y1="714.0" x2="1000.0" y2="514.0" stroke="#b3261e" stroke-width="1.2"/>
<rect x="900.0" y="746.0" width="480.0" height="46.0" rx="8" fill="#ffffff" stroke="#b3261e" stroke-width="1.2"/>
<text x="912.0" y="775.0" font-size="12.5" fill="#354a5f" text-anchor="start" font-weight="400">监控：单据流（VA03 → 环境）/ 订单清单 VA05 / 销售分析 MCTA</text>
<line x1="900.0" y1="769.0" x2="1000.0" y2="514.0" stroke="#b3261e" stroke-width="1.2"/>
<rect x="900.0" y="836.0" width="200.0" height="42.0" rx="12" fill="#5b3fa8" stroke="#5b3fa8" stroke-width="1.4"/>
<text x="1000.0" y="864.0" font-size="16" fill="#ffffff" text-anchor="middle" font-weight="700">⑥ 配置与分析</text>
<path d="M 830 660 C 876 660 854 857 900 857" fill="none" stroke="#5b3fa8" stroke-width="2.6"/>
<rect x="900.0" y="890.0" width="480.0" height="46.0" rx="8" fill="#ffffff" stroke="#5b3fa8" stroke-width="1.2"/>
<text x="912.0" y="919.0" font-size="12.5" fill="#354a5f" text-anchor="start" font-weight="400">SPRO 路线：组织 → 装运 → 主数据 → 定价 → 账户确定 → 更新组</text>
<line x1="900.0" y1="913.0" x2="1000.0" y2="878.0" stroke="#5b3fa8" stroke-width="1.2"/>
<rect x="900.0" y="945.0" width="480.0" height="46.0" rx="8" fill="#ffffff" stroke="#5b3fa8" stroke-width="1.2"/>
<text x="912.0" y="974.0" font-size="12.5" fill="#354a5f" text-anchor="start" font-weight="400">凭证控制对象：销售凭证类型 / 项目类别 / 计划行类别（VOV4 / VOV5 / VOV7）</text>
<line x1="900.0" y1="968.0" x2="1000.0" y2="878.0" stroke="#5b3fa8" stroke-width="1.2"/>
<rect x="900.0" y="1000.0" width="480.0" height="46.0" rx="8" fill="#ffffff" stroke="#5b3fa8" stroke-width="1.2"/>
<text x="912.0" y="1029.0" font-size="12.5" fill="#354a5f" text-anchor="start" font-weight="400">检查与规则：不完整性检查 OVA2、信贷管理、合作伙伴确定</text>
<line x1="900.0" y1="1023.0" x2="1000.0" y2="878.0" stroke="#5b3fa8" stroke-width="1.2"/>
<rect x="900.0" y="1055.0" width="480.0" height="46.0" rx="8" fill="#ffffff" stroke="#5b3fa8" stroke-width="1.2"/>
<text x="912.0" y="1084.0" font-size="12.5" fill="#354a5f" text-anchor="start" font-weight="400">输出确定：订单确认 / 交货单 / 发票的输出与打印</text>
<line x1="900.0" y1="1078.0" x2="1000.0" y2="878.0" stroke="#5b3fa8" stroke-width="1.2"/>
<rect x="900.0" y="1110.0" width="480.0" height="46.0" rx="8" fill="#ffffff" stroke="#5b3fa8" stroke-width="1.2"/>
<text x="912.0" y="1139.0" font-size="12.5" fill="#354a5f" text-anchor="start" font-weight="400">分析：VC/2 销售汇总、VA05 订单清单、MCTA 销售分析、资产负债表</text>
<line x1="900.0" y1="1133.0" x2="1000.0" y2="878.0" stroke="#5b3fa8" stroke-width="1.2"/>
</svg>
